<?xml version="1.0" encoding="UTF-8" standalone="no"?>
<!DOCTYPE svg PUBLIC "-//W3C//DTD SVG 1.0//EN" "http://www.w3.org/TR/2001/PR-SVG-20010719/DTD/svg10.dtd">
<svg width="62cm" height="31cm" viewBox="64 51 1237 616" xmlns="http://www.w3.org/2000/svg" xmlns:xlink="http://www.w3.org/1999/xlink">
  <defs/>
  <g id="Background">
    <g>
      <rect style="fill: #ffffff; fill-opacity: 1; stroke-opacity: 1; stroke-width: 2.35099e-37; stroke: #000000" x="70" y="61" width="133" height="20" rx="0" ry="0"/>
      <path style="fill: #ffffff; fill-opacity: 1; stroke-opacity: 1; stroke-width: 2; stroke: #000000" fill-rule="evenodd" d="M 66 56 L 561,56 L 561,493 L 66,493 L 66,56z"/>
      <path style="fill: #ffffff; fill-opacity: 1; stroke-opacity: 1; stroke-width: 2; stroke: #000000" fill-rule="evenodd" d="M 124 335 L 465,335 L 465,381 L 124,381 L 124,335z"/>
      <rect style="fill: #ffffff; fill-opacity: 1; stroke-opacity: 1; stroke-width: 2; stroke: #000000" x="142" y="111" width="70" height="160" rx="0" ry="0"/>
      <rect style="fill: #ffffff; fill-opacity: 1; stroke-opacity: 1; stroke-width: 2; stroke: #000000" x="229" y="114" width="65" height="160" rx="0" ry="0"/>
      <rect style="fill: #ffffff; fill-opacity: 1; stroke-opacity: 1; stroke-width: 2; stroke: #000000" x="306" y="111" width="76" height="165" rx="0" ry="0"/>
      <rect style="fill: #ffffff; fill-opacity: 1; stroke-opacity: 1; stroke-width: 2; stroke: #000000" x="399" y="113" width="65" height="163" rx="0" ry="0"/>
      <text font-size="12.7998" style="fill: #000000; fill-opacity: 1; stroke: none;text-anchor:start;font-family:sans-serif;font-style:normal;font-weight:normal" x="294.895" y="266.725">
        <tspan x="294.895" y="266.725"></tspan>
      </text>
      <text font-size="12.7998" style="fill: #000000; fill-opacity: 1; stroke: none;text-anchor:start;font-family:sans-serif;font-style:normal;font-weight:normal" x="313.5" y="274.5">
        <tspan x="313.5" y="274.5"></tspan>
      </text>
      <text font-size="12.7998" style="fill: #000000; fill-opacity: 1; stroke: none;text-anchor:middle;font-family:sans-serif;font-style:normal;font-weight:normal" x="136.5" y="71">
        <tspan x="136.5" y="71">golem-node</tspan>
      </text>
      <text font-size="12.7998" style="fill: #000000; fill-opacity: 1; stroke: none;text-anchor:middle;font-family:sans-serif;font-style:normal;font-weight:normal" x="177" y="191">
        <tspan x="177" y="191">service</tspan>
      </text>
      <text font-size="12.7998" style="fill: #000000; fill-opacity: 1; stroke: none;text-anchor:middle;font-family:sans-serif;font-style:normal;font-weight:normal" x="261.5" y="194">
        <tspan x="261.5" y="194">service</tspan>
      </text>
      <text font-size="12.7998" style="fill: #000000; fill-opacity: 1; stroke: none;text-anchor:middle;font-family:sans-serif;font-style:normal;font-weight:normal" x="344" y="193.5">
        <tspan x="344" y="193.5">service</tspan>
      </text>
      <text font-size="12.7998" style="fill: #000000; fill-opacity: 1; stroke: none;text-anchor:middle;font-family:sans-serif;font-style:normal;font-weight:normal" x="431.5" y="194.5">
        <tspan x="431.5" y="194.5">service</tspan>
      </text>
      <line style="fill: none; stroke-opacity: 1; stroke-width: 2; stroke: #000000" x1="180.594" y1="273.661" x2="258.519" y2="331.359"/>
      <polyline style="fill: none; stroke-opacity: 1; stroke-width: 2; stroke: #000000" points="189.809,274.263 178.797,272.331 183.859,282.3 "/>
      <polyline style="fill: none; stroke-opacity: 1; stroke-width: 2; stroke: #000000" points="249.304,330.757 260.316,332.689 255.254,322.72 "/>
      <line style="fill: none; stroke-opacity: 1; stroke-width: 2; stroke: #000000" x1="263.135" y1="278.162" x2="283.434" y2="329.833"/>
      <polyline style="fill: none; stroke-opacity: 1; stroke-width: 2; stroke: #000000" points="270.628,283.56 262.318,276.081 261.32,287.217 "/>
      <polyline style="fill: none; stroke-opacity: 1; stroke-width: 2; stroke: #000000" points="275.942,324.435 284.252,331.914 285.249,320.779 "/>
      <line style="fill: none; stroke-opacity: 1; stroke-width: 2; stroke: #000000" x1="341.689" y1="279.829" x2="311.295" y2="330.178"/>
      <polyline style="fill: none; stroke-opacity: 1; stroke-width: 2; stroke: #000000" points="341.957,289.059 342.844,277.914 333.396,283.891 "/>
      <polyline style="fill: none; stroke-opacity: 1; stroke-width: 2; stroke: #000000" points="311.027,320.947 310.139,332.092 319.588,326.115 "/>
      <line style="fill: none; stroke-opacity: 1; stroke-width: 2; stroke: #000000" x1="427.663" y1="278.297" x2="338.424" y2="331.71"/>
      <polyline style="fill: none; stroke-opacity: 1; stroke-width: 2; stroke: #000000" points="423.569,286.574 429.581,277.148 418.433,277.994 "/>
      <polyline style="fill: none; stroke-opacity: 1; stroke-width: 2; stroke: #000000" points="342.518,323.432 336.505,332.858 347.654,332.013 "/>
      <text font-size="12.7998" style="fill: #000000; fill-opacity: 1; stroke: none;text-anchor:middle;font-family:sans-serif;font-style:normal;font-weight:normal" x="294" y="355">
        <tspan x="294" y="355">GSB</tspan>
      </text>
      <rect style="fill: #ffffff; fill-opacity: 1; stroke-opacity: 1; stroke-width: 2; stroke: #000000" x="248" y="422" width="96.7" height="36" rx="10" ry="10"/>
      <text font-size="12.7998" style="fill: #000000; fill-opacity: 1; stroke: none;text-anchor:middle;font-family:sans-serif;font-style:normal;font-weight:normal" x="296.35" y="443.881">
        <tspan x="296.35" y="443.881">NET Service</tspan>
      </text>
      <line style="fill: none; stroke-opacity: 1; stroke-width: 2; stroke: #000000" x1="295.099" y1="383.471" x2="295.831" y2="416.556"/>
      <polyline style="fill: none; stroke-opacity: 1; stroke-width: 2; stroke: #000000" points="300.27,391.122 295.049,381.236 290.272,391.344 "/>
      <polyline style="fill: none; stroke-opacity: 1; stroke-width: 2; stroke: #000000" points="290.661,408.904 295.881,418.791 300.658,408.683 "/>
    </g>
    <rect style="fill: #ffffff; fill-opacity: 1; stroke-opacity: 1; stroke-width: 2.35099e-37; stroke: #000000" x="689.4" y="61.6" width="133" height="20" rx="0" ry="0"/>
    <path style="fill: #ffffff; fill-opacity: 1; stroke-opacity: 1; stroke-width: 2; stroke: #000000" fill-rule="evenodd" d="M 675.4 52.6 L 1170.4,52.6 L 1170.4,489.6 L 675.4,489.6 L 675.4,52.6z"/>
    <path style="fill: #ffffff; fill-opacity: 1; stroke-opacity: 1; stroke-width: 2; stroke: #000000" fill-rule="evenodd" d="M 743.4 335.6 L 1084.4,335.6 L 1084.4,381.6 L 743.4,381.6 L 743.4,335.6z"/>
    <rect style="fill: #ffffff; fill-opacity: 1; stroke-opacity: 1; stroke-width: 2; stroke: #000000" x="761.4" y="111.6" width="70" height="160" rx="0" ry="0"/>
    <rect style="fill: #ffffff; fill-opacity: 1; stroke-opacity: 1; stroke-width: 2; stroke: #000000" x="848.4" y="114.6" width="65" height="160" rx="0" ry="0"/>
    <rect style="fill: #ffffff; fill-opacity: 1; stroke-opacity: 1; stroke-width: 2; stroke: #000000" x="925.4" y="111.6" width="76" height="165" rx="0" ry="0"/>
    <text font-size="12.7998" style="fill: #000000; fill-opacity: 1; stroke: none;text-anchor:start;font-family:sans-serif;font-style:normal;font-weight:normal" x="914.295" y="267.325">
      <tspan x="914.295" y="267.325"></tspan>
    </text>
    <text font-size="12.7998" style="fill: #000000; fill-opacity: 1; stroke: none;text-anchor:start;font-family:sans-serif;font-style:normal;font-weight:normal" x="932.9" y="275.1">
      <tspan x="932.9" y="275.1"></tspan>
    </text>
    <text font-size="12.7998" style="fill: #000000; fill-opacity: 1; stroke: none;text-anchor:middle;font-family:sans-serif;font-style:normal;font-weight:normal" x="755.9" y="71.6">
      <tspan x="755.9" y="71.6">golem-node</tspan>
    </text>
    <text font-size="12.7998" style="fill: #000000; fill-opacity: 1; stroke: none;text-anchor:middle;font-family:sans-serif;font-style:normal;font-weight:normal" x="796.4" y="191.6">
      <tspan x="796.4" y="191.6">service</tspan>
    </text>
    <text font-size="12.7998" style="fill: #000000; fill-opacity: 1; stroke: none;text-anchor:middle;font-family:sans-serif;font-style:normal;font-weight:normal" x="880.9" y="194.6">
      <tspan x="880.9" y="194.6">service</tspan>
    </text>
    <text font-size="12.7998" style="fill: #000000; fill-opacity: 1; stroke: none;text-anchor:middle;font-family:sans-serif;font-style:normal;font-weight:normal" x="963.4" y="194.1">
      <tspan x="963.4" y="194.1">service</tspan>
    </text>
    <g>
      <line style="fill: none; stroke-opacity: 1; stroke-width: 2; stroke: #000000" x1="799.994" y1="274.261" x2="877.919" y2="331.959"/>
      <polyline style="fill: none; stroke-opacity: 1; stroke-width: 2; stroke: #000000" points="809.209,274.863 798.197,272.931 803.259,282.9 "/>
      <polyline style="fill: none; stroke-opacity: 1; stroke-width: 2; stroke: #000000" points="868.704,331.357 879.716,333.289 874.654,323.32 "/>
    </g>
    <g>
      <line style="fill: none; stroke-opacity: 1; stroke-width: 2; stroke: #000000" x1="882.535" y1="278.762" x2="902.834" y2="330.433"/>
      <polyline style="fill: none; stroke-opacity: 1; stroke-width: 2; stroke: #000000" points="890.028,284.16 881.718,276.681 880.72,287.817 "/>
      <polyline style="fill: none; stroke-opacity: 1; stroke-width: 2; stroke: #000000" points="895.342,325.035 903.652,332.514 904.649,321.379 "/>
    </g>
    <g>
      <line style="fill: none; stroke-opacity: 1; stroke-width: 2; stroke: #000000" x1="961.089" y1="280.429" x2="930.695" y2="330.778"/>
      <polyline style="fill: none; stroke-opacity: 1; stroke-width: 2; stroke: #000000" points="961.357,289.659 962.244,278.514 952.796,284.491 "/>
      <polyline style="fill: none; stroke-opacity: 1; stroke-width: 2; stroke: #000000" points="930.427,321.547 929.539,332.692 938.988,326.715 "/>
    </g>
    <g>
      <line style="fill: none; stroke-opacity: 1; stroke-width: 2; stroke: #000000" x1="1047.06" y1="278.897" x2="957.824" y2="332.31"/>
      <polyline style="fill: none; stroke-opacity: 1; stroke-width: 2; stroke: #000000" points="1042.97,287.174 1048.98,277.748 1037.83,278.594 "/>
      <polyline style="fill: none; stroke-opacity: 1; stroke-width: 2; stroke: #000000" points="961.918,324.032 955.905,333.458 967.054,332.613 "/>
    </g>
    <text font-size="12.7998" style="fill: #000000; fill-opacity: 1; stroke: none;text-anchor:middle;font-family:sans-serif;font-style:normal;font-weight:normal" x="913.4" y="355.6">
      <tspan x="913.4" y="355.6">GSB</tspan>
    </text>
    <g>
      <rect style="fill: #ffffff; fill-opacity: 1; stroke-opacity: 1; stroke-width: 2; stroke: #000000" x="867.4" y="422.6" width="96.7" height="36" rx="10" ry="10"/>
      <text font-size="12.7998" style="fill: #000000; fill-opacity: 1; stroke: none;text-anchor:middle;font-family:sans-serif;font-style:normal;font-weight:normal" x="915.75" y="444.481">
        <tspan x="915.75" y="444.481">NET Service</tspan>
      </text>
    </g>
    <g>
      <line style="fill: none; stroke-opacity: 1; stroke-width: 2; stroke: #000000" x1="914.499" y1="384.071" x2="915.231" y2="417.156"/>
      <polyline style="fill: none; stroke-opacity: 1; stroke-width: 2; stroke: #000000" points="919.67,391.722 914.449,381.836 909.672,391.944 "/>
      <polyline style="fill: none; stroke-opacity: 1; stroke-width: 2; stroke: #000000" points="910.061,409.504 915.281,419.391 920.058,409.283 "/>
    </g>
    <g>
      <polyline style="fill: none; stroke-opacity: 1; stroke-width: 2; stroke: #000000" points="296.35,458 297,458 297,631 915.75,631 915.75,463.072 "/>
      <polyline style="fill: none; stroke-opacity: 1; stroke-width: 2; stroke: #000000" points="306.35,453 296.35,458 306.35,463 "/>
      <polyline style="fill: none; stroke-opacity: 1; stroke-width: 2; stroke: #000000" points="920.75,470.836 915.75,460.836 910.75,470.836 "/>
    </g>
    <g>
      <rect style="fill: #ffffff; fill-opacity: 1; stroke-opacity: 1; stroke-width: 2; stroke: #000000" x="1018.4" y="113.6" width="65" height="163" rx="0" ry="0"/>
      <text font-size="12.7998" style="fill: #000000; fill-opacity: 1; stroke: none;text-anchor:middle;font-family:sans-serif;font-style:normal;font-weight:normal" x="1050.9" y="195.1">
        <tspan x="1050.9" y="195.1">service</tspan>
      </text>
    </g>
    <rect style="fill: #ffffff; fill-opacity: 1; stroke-opacity: 1; stroke-width: 2; stroke: #000000" x="1202.4" y="97.6" width="65" height="163" rx="0" ry="0"/>
    <text font-size="12.7998" style="fill: #000000; fill-opacity: 1; stroke: none;text-anchor:middle;font-family:sans-serif;font-style:normal;font-weight:normal" x="1234.9" y="179.1">
      <tspan x="1234.9" y="179.1">service</tspan>
      <tspan x="1234.9" y="195.1">&lt;out&gt;</tspan>
    </text>
    <rect style="fill: #ffffff; fill-opacity: 1; stroke-opacity: 1; stroke-width: 2; stroke: #000000" x="1235.8" y="300.2" width="65" height="163" rx="0" ry="0"/>
    <text font-size="12.7998" style="fill: #000000; fill-opacity: 1; stroke: none;text-anchor:middle;font-family:sans-serif;font-style:normal;font-weight:normal" x="1268.3" y="381.7">
      <tspan x="1268.3" y="381.7">service</tspan>
      <tspan x="1268.3" y="397.7">&lt;out&gt;</tspan>
    </text>
    <g>
      <line style="fill: none; stroke-opacity: 1; stroke-width: 2; stroke: #000000" x1="1231.05" y1="262.884" x2="1084.85" y2="349.716"/>
      <polyline style="fill: none; stroke-opacity: 1; stroke-width: 2; stroke: #000000" points="1226.93,271.147 1232.98,261.742 1221.83,262.549 "/>
      <polyline style="fill: none; stroke-opacity: 1; stroke-width: 2; stroke: #000000" points="1088.97,341.453 1082.92,350.858 1094.07,350.051 "/>
    </g>
    <g>
      <line style="fill: none; stroke-opacity: 1; stroke-width: 2; stroke: #000000" x1="1230.34" y1="378.924" x2="1085.46" y2="368.326"/>
      <polyline style="fill: none; stroke-opacity: 1; stroke-width: 2; stroke: #000000" points="1222.24,383.344 1232.57,379.087 1222.97,373.371 "/>
      <polyline style="fill: none; stroke-opacity: 1; stroke-width: 2; stroke: #000000" points="1093.57,363.906 1083.23,368.163 1092.84,373.879 "/>
    </g>
    <ellipse style="fill: #ffffff; fill-opacity: 1; stroke-opacity: 1; stroke-width: 2; stroke: #000000" cx="578" cy="633" rx="32" ry="32"/>
  </g>
</svg>
